<svg id="options" xmlns="http://www.w3.org/2000/svg" xmlns:xlink="http://www.w3.org/1999/xlink" preserveAspectRatio="xMidYMid" width="16" height="16" viewBox="0 0 16 16">
  <path fill="#98B1C4" d="M16.000,9.077 L16.000,6.923 L14.087,6.242 C13.955,5.785 13.773,5.348 13.547,4.939 L14.419,3.105 L12.895,1.581 L11.061,2.453 C10.652,2.227 10.215,2.045 9.758,1.913 L9.077,-0.000 L6.923,-0.000 L6.242,1.913 C5.784,2.045 5.348,2.227 4.939,2.453 L3.105,1.581 L1.581,3.105 L2.453,4.939 C2.227,5.348 2.045,5.785 1.913,6.242 L-0.000,6.923 L-0.000,9.077 L1.913,9.758 C2.045,10.215 2.227,10.652 2.453,11.061 L1.581,12.895 L3.105,14.419 L4.939,13.547 C5.348,13.773 5.784,13.955 6.242,14.087 L6.923,16.000 L9.077,16.000 L9.758,14.087 C10.215,13.955 10.652,13.773 11.061,13.547 L12.895,14.419 L14.419,12.895 L13.547,11.061 C13.773,10.652 13.955,10.215 14.087,9.758 L16.000,9.077 ZM8.000,10.934 C6.380,10.934 5.066,9.620 5.066,8.000 C5.066,6.380 6.380,5.066 8.000,5.066 C9.620,5.066 10.934,6.380 10.934,8.000 C10.934,9.620 9.620,10.934 8.000,10.934 Z" class="cls-1"/>
</svg>
