<svg id="participated" xmlns="http://www.w3.org/2000/svg" xmlns:xlink="http://www.w3.org/1999/xlink" preserveAspectRatio="xMidYMid" width="18" height="18" viewBox="0 0 18 18">
  <path fill="#98B1C4" d="M18.000,9.000 C18.000,13.971 13.971,18.000 9.000,18.000 C4.029,18.000 0.000,13.971 0.000,9.000 C0.000,4.029 4.029,0.000 9.000,0.000 C13.971,0.000 18.000,4.029 18.000,9.000 ZM16.252,9.000 C16.252,4.991 13.008,1.748 9.000,1.748 C4.991,1.748 1.748,4.992 1.748,9.000 C1.748,13.009 4.992,16.253 9.000,16.253 C13.009,16.253 16.252,13.008 16.252,9.000 ZM12.592,5.139 L7.519,10.213 L5.322,8.015 L3.692,9.644 L7.519,13.472 L14.223,6.769 L12.592,5.139 Z" class="cls-1"/>
</svg>
