<svg id="moderator" version="1.1" id="Layer_1" xmlns="http://www.w3.org/2000/svg" xmlns:xlink="http://www.w3.org/1999/xlink" x="0px" y="0px"
   viewBox="0 0 18 20" enable-background="new 0 0 18 20" xml:space="preserve">

    <path id="SVGID_1_" d="M9,2.4c1.3,0.8,2.7,1.3,4.3,1.3c0.1,0,0.1,0,0.2,0c0.9,0,1.7-0.1,2.5-0.4c0,2.4,0,4.9,0,7.4
      c0,1.2-0.5,2.3-1.4,3.5c-1.1,1.3-2.6,2.4-4.7,3.4c-0.3,0.1-0.6,0.3-1,0.4c-2.4-1-4.2-2.1-5.5-3.7c-1-1.2-1.5-2.5-1.5-4
      C2,8,2,5.8,2,3.5c0-0.1,0-0.1,0-0.2c0.8,0.2,1.7,0.4,2.5,0.4C6.1,3.7,7.7,3.3,9,2.4 M9,0C7.9,1.2,6.2,1.9,4.5,1.9
      C3,1.9,1.5,1.4,0,0.3c0,0.2,0,0.3,0,0.4c0,3.2,0,6.4,0,9.6c0,2,0.7,3.7,2,5.2C3.8,17.7,6.2,19,8.9,20c0,0,0.1,0,0.1,0
      c0.1,0,0.1,0,0.2,0c0.5-0.2,1.1-0.4,1.6-0.7c2.1-1,3.9-2.2,5.4-3.9c1.1-1.4,1.8-2.9,1.8-4.6c0-3.4,0-6.8,0-10.2c0-0.1,0-0.1,0-0.2
      c-1.3,1-2.8,1.5-4.4,1.5c0,0-0.1,0-0.1,0C11.7,1.8,10.2,1.2,9,0L9,0L9,0z"/>

</svg>
