<svg version="1.1" id="notifications
" xmlns="http://www.w3.org/2000/svg" xmlns:xlink="http://www.w3.org/1999/xlink" x="0px" y="0px"
   width="18px" height="20px" viewBox="0 0 18 20" enable-background="new 0 0 18 20" xml:space="preserve">

  <path fill="#98B1C4" id="SVGID_1_" d="M9,20c1.2,0,2-0.9,2-2H7C7,19.1,7.8,20,9,20L9,20z M16,13V8c0-3.1-2-5.3-5-6l-0.4-0.5C10.6,0.7,9.9,0,9,0 C8.1,0,7.4,0.7,7.4,1.5L7,2C4,2.7,2,4.9,2,8v5l-2,2v2h18v-2L16,13L16,13z M14,15H4V8c0-2.5,2.4-4,5-4c2.6,0,5,1.5,5,4V15L14,15z"/>
 </svg>
