<svg id="views" xmlns="http://www.w3.org/2000/svg" xmlns:xlink="http://www.w3.org/1999/xlink" preserveAspectRatio="xMidYMid" width="18" height="12" viewBox="0 0 18 12">
  <path fill="#98B1C4" d="M9.011,-0.007 C3.335,-0.007 -0.000,5.980 -0.000,5.980 C-0.000,5.980 3.626,12.007 9.011,12.007 C14.811,12.007 18.000,5.980 18.000,5.980 C18.000,5.980 14.782,-0.007 9.011,-0.007 ZM9.000,10.203 C6.648,10.203 4.741,8.321 4.741,6.000 C4.741,3.678 6.648,1.797 9.000,1.797 C11.352,1.797 13.259,3.678 13.259,6.000 C13.259,8.321 11.352,10.203 9.000,10.203 ZM10.797,6.000 C10.797,6.979 9.992,7.773 9.000,7.773 C8.008,7.773 7.203,6.979 7.203,6.000 C7.203,5.021 8.008,4.227 9.000,4.227 C9.992,4.227 10.797,5.021 10.797,6.000 Z" class="cls-1"/>
</svg>
