<svg id="user-discussion" xmlns="http://www.w3.org/2000/svg" xmlns:xlink="http://www.w3.org/1999/xlink" preserveAspectRatio="xMidYMid" width="18" height="17" viewBox="0 0 18 17">
  <path fill="#98B1C4" d="M17.659,14.460 L15.829,12.114 C15.633,11.863 15.368,11.678 15.063,11.577 L12.595,10.768 C12.873,10.347 13.102,9.867 13.278,9.338 C13.361,9.264 13.439,9.184 13.514,9.096 C13.929,8.607 14.199,7.918 14.337,6.990 C14.373,6.746 14.411,6.179 14.107,5.643 C14.165,4.611 14.015,2.932 12.747,1.580 C11.414,0.119 9.579,0.005 9.048,0.005 L8.937,0.005 C8.407,0.005 6.571,0.119 5.245,1.572 C3.970,2.931 3.821,4.611 3.878,5.643 C3.577,6.176 3.613,6.741 3.648,6.989 C3.787,7.918 4.056,8.607 4.468,9.093 C4.543,9.182 4.623,9.264 4.708,9.340 C4.885,9.869 5.113,10.349 5.389,10.768 L2.926,11.576 C2.622,11.675 2.357,11.860 2.156,12.114 L0.326,14.460 C-0.043,14.933 -0.109,15.583 0.160,16.120 C0.434,16.661 0.985,16.998 1.598,16.998 L16.387,16.998 C16.993,16.998 17.558,16.651 17.825,16.117 C18.094,15.581 18.028,14.930 17.659,14.460 ZM5.466,6.303 C5.501,6.303 5.540,6.308 5.583,6.322 C5.583,6.322 5.012,4.142 6.427,2.638 C7.336,1.639 8.652,1.582 8.937,1.582 C8.972,1.582 8.993,1.584 8.993,1.584 C8.993,1.584 9.011,1.582 9.048,1.582 C9.330,1.582 10.650,1.639 11.557,2.638 C12.973,4.142 12.400,6.322 12.400,6.322 C12.445,6.308 12.484,6.303 12.518,6.303 C12.817,6.303 12.750,6.760 12.750,6.760 C12.529,8.241 12.002,8.301 11.918,8.301 C11.911,8.301 11.906,8.301 11.906,8.301 C11.710,9.143 11.402,9.745 11.057,10.177 C10.889,10.386 10.713,10.555 10.537,10.691 C9.839,11.235 9.145,11.262 9.014,11.262 C9.000,11.262 8.993,11.262 8.993,11.262 C8.993,11.262 8.986,11.262 8.970,11.262 C8.840,11.262 8.147,11.235 7.448,10.691 C7.272,10.555 7.096,10.386 6.929,10.177 C6.583,9.745 6.275,9.143 6.078,8.301 L6.067,8.301 C5.982,8.301 5.455,8.241 5.236,6.760 C5.236,6.760 5.166,6.303 5.466,6.303 ZM6.897,11.937 L6.970,11.362 C7.058,11.429 7.150,11.492 7.244,11.551 C8.030,12.041 8.765,12.080 8.970,12.080 C8.979,12.080 8.987,12.080 8.993,12.080 C8.998,12.080 9.006,12.080 9.014,12.080 C9.220,12.080 9.955,12.041 10.741,11.551 C10.835,11.492 10.926,11.429 11.015,11.362 L11.088,11.937 L14.556,13.074 L16.387,15.420 L8.993,15.420 L1.598,15.420 L3.429,13.074 L6.897,11.937 Z" class="cls-1"/>
</svg>
