<svg id="youtube" version="1.1" xmlns="http://www.w3.org/2000/svg" xmlns:xlink="http://www.w3.org/1999/xlink" x="0px" y="0px"
   viewBox="0 0 27 26" enable-background="new 0 0 27 26" xml:space="preserve">


      <path d="M13.5,0c-7.2,0-13,5.8-13,13c0,7.2,5.8,13,13,13c7.2,0,13-5.8,13-13C26.5,5.8,20.7,0,13.5,0L13.5,0z
         M21.1,15.9c-0.2,2.1-1.1,2.4-2.7,2.5c-2.3,0.2-7.5,0.2-9.9,0c-1.6-0.1-2.5-0.4-2.7-2.5c-0.2-1.5-0.2-4.2,0-5.7
        c0.2-2.1,1.1-2.4,2.7-2.5c2.3-0.2,7.5-0.2,9.9,0c1.6,0.1,2.5,0.4,2.7,2.5C21.3,11.7,21.3,14.3,21.1,15.9L21.1,15.9z M12,10.8
        l4.2,2.2L12,15.2V10.8L12,10.8z"/>


</svg>
