<?xml version="1.0" encoding="utf-8"?>
<!-- Generator: Adobe Illustrator 18.0.0, SVG Export Plug-In . SVG Version: 6.00 Build 0)  -->
<!DOCTYPE svg PUBLIC "-//W3C//DTD SVG 1.1//EN" "http://www.w3.org/Graphics/SVG/1.1/DTD/svg11.dtd">
<svg version="1.1" id="Layer_1" xmlns="http://www.w3.org/2000/svg" xmlns:xlink="http://www.w3.org/1999/xlink" x="0px" y="0px"
   viewBox="0 0 27 26" enable-background="new 0 0 27 26" xml:space="preserve">

      <path id="facebook" d="M13.5,0c-7.2,0-13,5.8-13,13c0,7.2,5.8,13,13,13s13-5.8,13-13C26.5,5.8,20.7,0,13.5,0L13.5,0z M17.3,7.6
        c0,0-1.3,0-1.8,0c-0.6,0-0.8,0.3-0.8,0.9c0,0.6,0,1.6,0,1.6h2.6L17.1,13h-2.3v8.4h-3.4V13H9.6v-2.8h1.7c0,0,0-0.4,0-2.2
        c0-2.1,1.1-3.2,3.6-3.2c0.4,0,2.3,0,2.3,0L17.3,7.6L17.3,7.6L17.3,7.6z"/>

</svg>
