<?xml version="1.0" encoding="utf-8"?>
<!-- Generator: Adobe Illustrator 18.0.0, SVG Export Plug-In . SVG Version: 6.00 Build 0)  -->
<!DOCTYPE svg PUBLIC "-//W3C//DTD SVG 1.1//EN" "http://www.w3.org/Graphics/SVG/1.1/DTD/svg11.dtd">
<svg version="1.1" id="Layer_1" xmlns="http://www.w3.org/2000/svg" xmlns:xlink="http://www.w3.org/1999/xlink" x="0px" y="0px"
   viewBox="0 0 27 26" enable-background="new 0 0 27 26" xml:space="preserve">



      <path id="twitter" d="M13.5,0c-7.2,0-13,5.8-13,13c0,7.2,5.8,13,13,13s13-5.8,13-13C26.5,5.8,20.7,0,13.5,0L13.5,0z M20,10.7
        c0.2,4.2-3,9-8.6,9c-1.7,0-3.3-0.5-4.6-1.4c1.6,0.2,3.2-0.3,4.5-1.2c-1.3,0-2.4-0.9-2.8-2.1C9,15.1,9.4,15,9.9,14.9
        c-1.5-0.3-2.5-1.6-2.4-3c0.4,0.2,0.9,0.4,1.4,0.4c-1.3-0.9-1.7-2.7-0.9-4c1.5,1.8,3.7,3,6.2,3.1c-0.4-1.9,1-3.7,2.9-3.7
        c0.9,0,1.7,0.4,2.2,1c0.7-0.1,1.3-0.4,1.9-0.7c-0.2,0.7-0.7,1.3-1.3,1.7c0.6-0.1,1.2-0.2,1.7-0.5C21.1,9.8,20.6,10.3,20,10.7
        L20,10.7z"/>

</svg>
