<svg id="administrator" version="1.1" id="Layer_1" xmlns="http://www.w3.org/2000/svg" xmlns:xlink="http://www.w3.org/1999/xlink" x="0px" y="0px"
   viewBox="0 0 18 21" enable-background="new 0 0 18 21" xml:space="preserve">

    <path id="SVGID_1_" d="M18,0.6c0-0.1,0-0.1,0-0.2c-1.4,1-2.9,1.6-4.6,1.6C11.7,1.9,10.2,1.2,9,0C6.9,2.3,3.2,2.8,0,0.4
      c0,0.2,0,0.3,0,0.4c0,3.4,0,6.7,0,10.1c0,2.1,0.7,3.9,2,5.5C3.8,18.5,6.2,20,8.9,21c0.1,0,0.2,0,0.3,0c0.5-0.2,1.1-0.4,1.6-0.7
      c2.1-1,3.9-2.3,5.4-4.1c1.1-1.4,1.8-3,1.8-4.8C18,7.7,18,4.1,18,0.6L18,0.6z M12.8,15.3L9,12.4l-3.8,2.8l1.5-4.6L2.8,7.9h4.7
      L9,3.3l1.5,4.6h4.7l-3.8,2.8L12.8,15.3L12.8,15.3z"/>

</svg>
