<svg id="recent-discussions" xmlns="http://www.w3.org/2000/svg" xmlns:xlink="http://www.w3.org/1999/xlink" preserveAspectRatio="xMidYMid" width="16" height="13" viewBox="0 0 16 13">
  <path d="M7.000,12.000 L7.000,11.000 L16.000,11.000 L16.000,12.000 L7.000,12.000 ZM7.000,6.000 L16.000,6.000 L16.000,7.000 L7.000,7.000 L7.000,6.000 ZM7.000,1.000 L16.000,1.000 L16.000,2.000 L7.000,2.000 L7.000,1.000 ZM-0.000,10.000 L3.000,10.000 L3.000,13.000 L-0.000,13.000 L-0.000,10.000 ZM-0.000,5.000 L3.000,5.000 L3.000,8.000 L-0.000,8.000 L-0.000,5.000 ZM-0.000,-0.000 L3.000,-0.000 L3.000,3.000 L-0.000,3.000 L-0.000,-0.000 Z" class="cls-1"/>
</svg>
