<svg id="activity" xmlns="http://www.w3.org/2000/svg" xmlns:xlink="http://www.w3.org/1999/xlink" preserveAspectRatio="xMidYMid" width="18" height="18" viewBox="0 0 18 18">
<path fill="#98B1C4" d="M14.000,10.000 L8.000,10.000 L8.000,4.000 L9.000,4.000 L9.000,9.000 L14.000,9.000 L14.000,10.000 ZM9.000,1.966 C5.112,1.966 1.966,5.113 1.966,9.000 C1.966,12.888 5.113,16.034 9.000,16.034 C12.888,16.034 16.034,12.887 16.034,9.000 C16.034,5.112 12.887,1.966 9.000,1.966 M9.000,0.000 C13.971,0.000 18.000,4.030 18.000,9.000 C18.000,13.971 13.971,18.000 9.000,18.000 C4.029,18.000 0.000,13.971 0.000,9.000 C0.000,4.030 4.029,0.000 9.000,0.000 Z" class="cls-1"/>
</svg>
