
<svg version="1.1" id="Layer_1" xmlns="http://www.w3.org/2000/svg" xmlns:xlink="http://www.w3.org/1999/xlink" x="0px" y="0px"
   viewBox="0 0 13.2 13" enable-background="new 0 0 13.2 13" xml:space="preserve">

    <path id="SVGID_1_" fill="#98B1C4" d="M6.5,0C2.9,0,0,2.9,0,6.5C0,10.1,2.9,13,6.5,13c3.6,0,6.5-2.9,6.5-6.5C13,2.9,10.1,0,6.5,0L6.5,0L6.5,0z
       M4.4,9.2c-1,0.2-2-0.4-2.3-1.7C1.9,5.6,3.3,4,5.4,3.7c0.1,0,0.1,0.1,0.1,0.1l0.1,0.6c0,0,0,0.1-0.1,0.1C4.9,4.7,4.4,5,4.2,5.7
      c0.8,0,1.5,0.7,1.7,1.5C6,8.2,5.4,9.1,4.4,9.2L4.4,9.2L4.4,9.2z M9.4,9.2c-1,0.2-2-0.4-2.3-1.7C6.9,5.6,8.3,4,10.4,3.7
      c0.1,0,0.1,0.1,0.1,0.1l0.1,0.6c0,0,0,0.1-0.1,0.1C9.9,4.7,9.4,5,9.2,5.7c0.8,0,1.5,0.7,1.7,1.5C11,8.2,10.4,9.1,9.4,9.2L9.4,9.2z
      "/>

</svg>
