<svg xmlns="http://www.w3.org/2000/svg" xmlns:xlink="http://www.w3.org/1999/xlink" preserveAspectRatio="xMidYMid" width="42" height="42" viewBox="0 0 42 42">
  <defs>
    <style>
      .cls-1 {
        stroke: #313131;
        stroke-width: 2px;
        fill: none;
      }

      .cls-2 {
        fill: #313131;
        fill-rule: evenodd;
      }
    </style>
  </defs>
  <g>
    <circle cx="21" cy="21" r="20" class="cls-1"/>
    <path d="M29.629,26.008 L27.595,23.249 C27.377,22.953 27.083,22.735 26.744,22.617 L24.001,21.665 C24.310,21.170 24.565,20.605 24.761,19.983 C24.853,19.896 24.940,19.801 25.022,19.698 C25.484,19.122 25.783,18.312 25.937,17.221 C25.978,16.932 26.019,16.266 25.682,15.635 C25.746,14.422 25.579,12.446 24.171,10.856 C22.689,9.137 20.650,9.003 20.060,9.003 L19.937,9.003 C19.348,9.003 17.308,9.137 15.835,10.846 C14.419,12.444 14.252,14.422 14.316,15.635 C13.982,16.262 14.021,16.927 14.060,17.219 C14.215,18.312 14.514,19.122 14.972,19.694 C15.055,19.799 15.144,19.896 15.238,19.985 C15.435,20.608 15.688,21.172 15.995,21.665 L13.258,22.616 C12.920,22.731 12.626,22.949 12.403,23.248 L10.369,26.008 C9.959,26.565 9.886,27.330 10.185,27.961 C10.489,28.598 11.102,28.994 11.783,28.994 L28.215,28.994 C28.889,28.994 29.516,28.586 29.812,27.958 C30.111,27.327 30.039,26.561 29.629,26.008 ZM16.080,16.412 C16.119,16.412 16.163,16.418 16.211,16.434 C16.211,16.434 15.576,13.870 17.148,12.100 C18.158,10.925 19.621,10.858 19.937,10.858 C19.977,10.858 19.999,10.860 19.999,10.860 C19.999,10.860 20.020,10.858 20.060,10.858 C20.374,10.858 21.840,10.925 22.848,12.100 C24.422,13.870 23.785,16.434 23.785,16.434 C23.835,16.418 23.878,16.412 23.916,16.412 C24.249,16.412 24.173,16.950 24.173,16.950 C23.928,18.692 23.343,18.762 23.249,18.762 C23.242,18.762 23.236,18.762 23.236,18.762 C23.018,19.753 22.676,20.462 22.292,20.970 C22.106,21.216 21.910,21.414 21.715,21.574 C20.939,22.214 20.168,22.246 20.023,22.246 C20.007,22.246 19.999,22.246 19.999,22.246 C19.999,22.246 19.991,22.246 19.974,22.246 C19.830,22.246 19.060,22.214 18.283,21.574 C18.087,21.414 17.891,21.216 17.706,20.970 C17.321,20.462 16.979,19.753 16.761,18.762 L16.748,18.762 C16.654,18.762 16.068,18.692 15.825,16.950 C15.825,16.950 15.747,16.412 16.080,16.412 ZM17.671,23.040 L17.751,22.363 C17.850,22.442 17.952,22.517 18.056,22.586 C18.930,23.163 19.746,23.208 19.974,23.208 C19.984,23.208 19.993,23.208 19.999,23.208 C20.005,23.208 20.014,23.208 20.023,23.208 C20.252,23.208 21.068,23.163 21.942,22.586 C22.046,22.517 22.147,22.442 22.245,22.363 L22.327,23.040 L26.181,24.378 L28.215,27.138 L19.999,27.138 L11.783,27.138 L13.818,24.378 L17.671,23.040 Z" class="cls-2"/>
  </g>
</svg>
